<?xml version="1.0" encoding="UTF-8"?>
<svg version="1.1" xmlns="http://www.w3.org/2000/svg" width="704" height="271">
<path d="M0 0 C232.32 0 464.64 0 704 0 C704 89.43 704 178.86 704 271 C471.68 271 239.36 271 0 271 C0 181.57 0 92.14 0 0 Z " fill="#111825" transform="translate(0,0)"/>
<path d="M0 0 C3.39622938 3.20754997 4.91840666 6.4933611 6 11 C6.02959593 13.33314563 6.0330936 15.66690136 6 18 C7.02770508 17.54560547 7.02770508 17.54560547 8.07617188 17.08203125 C11.21103012 15.70616504 14.35520597 14.35299278 17.5 13 C18.57765625 12.52304687 19.6553125 12.04609375 20.765625 11.5546875 C26.75785516 8.99702829 31.46230025 7.13638729 38 8 C41.7182072 11.24151397 42.62133603 14.17203442 43 19 C43.03159003 21.66714624 43.01096594 24.33253457 43 27 C44.07378906 26.48308594 45.14757812 25.96617188 46.25390625 25.43359375 C47.68968202 24.76731872 49.12590404 24.10200474 50.5625 23.4375 C51.61920898 22.92413086 51.61920898 22.92413086 52.69726562 22.40039062 C57.44860236 20.23273008 60.83241397 19.25241636 66 21 C69.77123266 24.9174517 70.4562713 28.21214303 70.40209961 33.42211914 C70.37253174 34.21094482 70.34296387 34.99977051 70.3125 35.8125 C70.29038452 37.04697876 70.29038452 37.04697876 70.26782227 38.30639648 C70.12330763 44.79218867 69.76911814 51.27545967 69.26879883 57.7434082 C68.90014297 61.48878891 68.90014297 61.48878891 70 65 C70.77923828 64.566875 70.77923828 64.566875 71.57421875 64.125 C79.21972829 60.05493207 79.21972829 60.05493207 83 61 C85.3125 62.875 85.3125 62.875 87 66 C87.67779724 72.63383419 86.68387583 79.11806726 85.42578125 85.6171875 C85.26165741 86.50460129 85.09753357 87.39201508 84.92843628 88.30632019 C84.39808771 91.16416775 83.85549136 94.01953031 83.3125 96.875 C82.94287654 98.85196602 82.57414867 100.82909968 82.20629883 102.80639648 C81.65558825 105.76546901 81.10416863 108.72438974 80.54917908 111.68266296 C79.48484749 117.35948876 78.44922945 123.03991815 77.4609375 128.73046875 C77.13162231 130.62079834 77.13162231 130.62079834 76.7956543 132.54931641 C76.40564814 134.80230261 76.01880689 137.05584031 75.63598633 139.31005859 C71.75903382 161.50842172 71.75903382 161.50842172 62.94607544 168.69503784 C58.91895641 171.39546653 54.32693706 172.90722984 49.80859375 174.59765625 C48.69460205 175.02507111 47.58061035 175.45248596 46.43286133 175.89285278 C43.40179966 177.05302767 40.36699191 178.20263063 37.33008957 179.34740829 C34.15119389 180.54851495 30.97742731 181.76303137 27.80297852 182.97583008 C20.53404091 185.74968554 13.25708865 188.50213157 5.97900391 191.25187683 C2.73660718 192.47760059 -0.50472628 193.70612791 -3.74609375 194.93457031 C-19.59874225 200.94137576 -35.45816216 206.93030765 -51.33459473 212.87400818 C-55.37610184 214.38661142 -55.37610184 214.38661142 -59.3984375 215.94921875 C-64.87143513 217.99348071 -70.17774576 219.06230604 -76 218 C-81.47797035 214.18923802 -84.69108062 207.48604307 -86 201 C-86.09773325 198.87250786 -86.13921319 196.74220873 -86.14717102 194.61248779 C-86.15432632 193.29752823 -86.16148163 191.98256866 -86.16885376 190.62776184 C-86.17169385 189.17208886 -86.1744056 187.71641562 -86.17700195 186.26074219 C-86.18326908 184.72635241 -86.1899161 183.19196413 -86.19691467 181.65757751 C-86.21792693 176.62068737 -86.22831405 171.58379702 -86.23828125 166.546875 C-86.24232979 164.81105788 -86.24644674 163.07524093 -86.25063133 161.33942413 C-86.26967637 153.1840862 -86.28390913 145.02875729 -86.2922433 136.8734014 C-86.30201508 127.46729104 -86.32833588 118.06141604 -86.36874419 108.65538859 C-86.3989256 101.37965725 -86.41371407 94.1039933 -86.41702431 86.82820058 C-86.41937238 82.48514051 -86.42830111 78.14233208 -86.45348549 73.79933929 C-86.47680696 69.71167529 -86.48098324 65.62442791 -86.47072411 61.53671455 C-86.47022963 60.04037908 -86.47652402 58.5440228 -86.49028015 57.04775047 C-86.55889489 49.1389894 -86.51000153 42.76497026 -82 36 C-78.15074373 32.19250781 -74.31983623 29.98018391 -69.36328125 27.87109375 C-68.73436981 27.59982666 -68.10545837 27.32855957 -67.45748901 27.04907227 C-65.41295872 26.16936253 -63.36283591 25.30358015 -61.3125 24.4375 C-59.88337363 23.82480663 -58.45474958 23.21094035 -57.02661133 22.59594727 C-54.83974589 21.65448441 -52.65256825 20.71383022 -50.46372986 19.77696228 C-43.34236713 16.72872183 -36.2620858 13.59270029 -29.1875 10.4375 C-28.11733643 9.96175537 -27.04717285 9.48601074 -25.94458008 8.99584961 C-24.92517334 8.54218018 -23.9057666 8.08851074 -22.85546875 7.62109375 C-21.88013184 7.18909668 -20.90479492 6.75709961 -19.89990234 6.31201172 C-17.92448066 5.41826562 -15.96144307 4.49675022 -14.01025391 3.55126953 C-13.05425293 3.09220215 -12.09825195 2.63313477 -11.11328125 2.16015625 C-9.85124878 1.53765991 -9.85124878 1.53765991 -8.5637207 0.90258789 C-5.52477602 -0.16730817 -3.20014254 -0.30381275 0 0 Z " fill="#6ABCEB" transform="translate(113,27)"/>
<path d="M0 0 C3.39622938 3.20754997 4.91840666 6.4933611 6 11 C6.02959593 13.33314563 6.0330936 15.66690136 6 18 C7.02770508 17.54560547 7.02770508 17.54560547 8.07617188 17.08203125 C11.21103012 15.70616504 14.35520597 14.35299278 17.5 13 C18.57765625 12.52304687 19.6553125 12.04609375 20.765625 11.5546875 C26.75785516 8.99702829 31.46230025 7.13638729 38 8 C41.7182072 11.24151397 42.62133603 14.17203442 43 19 C43.03159003 21.66714624 43.01096594 24.33253457 43 27 C44.07378906 26.48308594 45.14757812 25.96617188 46.25390625 25.43359375 C47.68968202 24.76731872 49.12590404 24.10200474 50.5625 23.4375 C51.61920898 22.92413086 51.61920898 22.92413086 52.69726562 22.40039062 C57.44860236 20.23273008 60.83241397 19.25241636 66 21 C69.68267123 24.85548266 70.46735014 28.09609673 70.45605469 33.21801758 C70.42930664 33.99169678 70.40255859 34.76537598 70.375 35.5625 C70.3534082 36.37807373 70.33181641 37.19364746 70.30957031 38.03393555 C70.25337138 39.77758998 70.18531267 41.52089563 70.10644531 43.26367188 C69.99694339 46.07857457 69.97917871 48.88629862 69.9609375 51.703125 C69.62620895 65.12238106 69.62620895 65.12238106 66.00390625 69.3046875 C63.44049936 70.62173545 60.94989101 71.5111271 58.18212891 72.29785156 C53.47066701 73.81386906 49.01086519 76.03988508 44.5 78.0625 C20.08460907 88.68861908 -4.62862427 98.88201417 -29.875 107.375 C-30.65544678 107.63829102 -31.43589355 107.90158203 -32.23999023 108.17285156 C-37.75401928 110 -37.75401928 110 -40 110 C-40 109.01 -40 108.02 -40 107 C-39.34 107 -38.68 107 -38 107 C-38.33 106.01 -38.66 105.02 -39 104 C-39.15029988 101.93637009 -39.24844448 99.86876085 -39.31640625 97.80078125 C-39.35830078 96.59228516 -39.40019531 95.38378906 -39.44335938 94.13867188 C-39.48267578 92.87603516 -39.52199219 91.61339844 -39.5625 90.3125 C-39.60568359 89.03826172 -39.64886719 87.76402344 -39.69335938 86.45117188 C-39.7995486 83.30089148 -39.90159533 80.15053161 -40 77 C-40.99 77 -41.98 77 -43 77 C-45.10770759 79.88834003 -46 81.38462395 -46 85 C-46.78375 85.7425 -47.5675 86.485 -48.375 87.25 C-52.00750338 91.05547974 -52.68611049 94.70765537 -53.38671875 99.82421875 C-54.0518832 103.26866906 -55.16919873 106.15968938 -56.5625 109.375 C-57.01753906 110.43460937 -57.47257812 111.49421875 -57.94140625 112.5859375 C-58.29074219 113.38257813 -58.64007813 114.17921875 -59 115 C-59.66 115 -60.32 115 -61 115 C-61.02508834 108.92090135 -61.04303974 102.84183413 -61.05493164 96.76269531 C-61.05989949 94.70311965 -61.06667606 92.64354739 -61.07543945 90.58398438 C-61.12888053 77.6826797 -60.89718331 64.87210231 -60 52 C-61.25554688 52.11859375 -62.51109375 52.2371875 -63.8046875 52.359375 C-64.51093262 52.42608398 -65.21717773 52.49279297 -65.94482422 52.56152344 C-69.44857819 53.30905755 -71.4661835 55.57634944 -74 58 C-75.03793701 58.68835938 -76.07587402 59.37671875 -77.14526367 60.0859375 C-79.05986697 61.68346497 -79.88792654 62.56746679 -80.51821899 65 C-80.67862778 67.47972876 -80.64803556 69.89190636 -80.55078125 72.375 C-80.53448921 73.75461914 -80.53448921 73.75461914 -80.51786804 75.16210938 C-80.47777182 78.10936017 -80.39681077 81.05371295 -80.3125 84 C-80.23515047 87.83317078 -80.17375633 91.6665305 -80.11328125 95.5 C-80.08627892 96.95381325 -80.08627892 96.95381325 -80.05873108 98.43699646 C-79.96491797 104.5581023 -80.11937986 110.61316564 -80.484375 116.72265625 C-81.03183221 126.12907534 -81.06647264 135.51541567 -81.02734375 144.93359375 C-81.02327735 146.05649244 -81.02327735 146.05649244 -81.0191288 147.20207596 C-80.99281034 154.20844231 -80.95351821 161.21470754 -80.90405273 168.22094727 C-80.87723327 172.09658717 -80.86022843 175.97217169 -80.84918404 179.84788704 C-80.84301389 181.3082699 -80.83305903 182.76864225 -80.81910515 184.22897148 C-80.79981826 186.25861954 -80.7940407 188.28838226 -80.78881836 190.31811523 C-80.78136093 191.46722885 -80.7739035 192.61634247 -80.76622009 193.80027771 C-81.01153042 197.15781575 -81.92503074 199.82813062 -83 203 C-82.19838209 205.67145537 -82.19838209 205.67145537 -81 208 C-81 208.99 -81 209.98 -81 211 C-80.34 211 -79.68 211 -79 211 C-78.67 211.99 -78.34 212.98 -78 214 C-78.66 214.33 -79.32 214.66 -80 215 C-80.81752303 213.41925436 -81.62881997 211.83528777 -82.4375 210.25 C-83.11619141 208.92742187 -83.11619141 208.92742187 -83.80859375 207.578125 C-85.84962902 203.16145851 -86.12899585 199.47663334 -86.14717102 194.61248779 C-86.15432632 193.29752823 -86.16148163 191.98256866 -86.16885376 190.62776184 C-86.17169385 189.17208886 -86.1744056 187.71641562 -86.17700195 186.26074219 C-86.18326908 184.72635241 -86.1899161 183.19196413 -86.19691467 181.65757751 C-86.21792693 176.62068737 -86.22831405 171.58379702 -86.23828125 166.546875 C-86.24232979 164.81105788 -86.24644674 163.07524093 -86.25063133 161.33942413 C-86.26967637 153.1840862 -86.28390913 145.02875729 -86.2922433 136.8734014 C-86.30201508 127.46729104 -86.32833588 118.06141604 -86.36874419 108.65538859 C-86.3989256 101.37965725 -86.41371407 94.1039933 -86.41702431 86.82820058 C-86.41937238 82.48514051 -86.42830111 78.14233208 -86.45348549 73.79933929 C-86.47680696 69.71167529 -86.48098324 65.62442791 -86.47072411 61.53671455 C-86.47022963 60.04037908 -86.47652402 58.5440228 -86.49028015 57.04775047 C-86.55889489 49.1389894 -86.51000153 42.76497026 -82 36 C-78.15074373 32.19250781 -74.31983623 29.98018391 -69.36328125 27.87109375 C-68.73436981 27.59982666 -68.10545837 27.32855957 -67.45748901 27.04907227 C-65.41295872 26.16936253 -63.36283591 25.30358015 -61.3125 24.4375 C-59.88337363 23.82480663 -58.45474958 23.21094035 -57.02661133 22.59594727 C-54.83974589 21.65448441 -52.65256825 20.71383022 -50.46372986 19.77696228 C-43.34236713 16.72872183 -36.2620858 13.59270029 -29.1875 10.4375 C-28.11733643 9.96175537 -27.04717285 9.48601074 -25.94458008 8.99584961 C-24.92517334 8.54218018 -23.9057666 8.08851074 -22.85546875 7.62109375 C-21.88013184 7.18909668 -20.90479492 6.75709961 -19.89990234 6.31201172 C-17.92448066 5.41826562 -15.96144307 4.49675022 -14.01025391 3.55126953 C-13.05425293 3.09220215 -12.09825195 2.63313477 -11.11328125 2.16015625 C-9.85124878 1.53765991 -9.85124878 1.53765991 -8.5637207 0.90258789 C-5.52477602 -0.16730817 -3.20014254 -0.30381275 0 0 Z " fill="#4DB2EE" transform="translate(113,27)"/>
<path d="M0 0 C65.55305927 0 65.55305927 0 81.8984375 15.54296875 C92.41975705 27.8439167 95.58213635 41.35817669 95.5 57.25 C95.49427979 58.53108643 95.48855957 59.81217285 95.48266602 61.13208008 C95.18820139 76.72879068 90.96726026 88.01129612 80.5625 99.75 C57.05558486 120.39021817 32.32828217 115 0 115 C0 77.05 0 39.1 0 0 Z " fill="#F6F7F8" transform="translate(335,67)"/>
<path d="M0 0 C1.18408447 0.01921509 1.18408447 0.01921509 2.39208984 0.03881836 C11.41033159 0.35142353 18.60290572 2.92333482 25.23828125 9.1953125 C35.25052266 21.42558669 37.10676304 36.16579628 36.125 51.5 C34.97267106 60.71863153 32.53316193 67.94299506 27.125 75.5 C26.50625 76.428125 25.8875 77.35625 25.25 78.3125 C18.18036953 85.59006078 10.04963078 87.54661541 0.1875 87.875 C-5.89366031 87.76431507 -10.88009538 87.14035421 -15.875 83.5 C-18.79713398 80.46759682 -20.875 77.862685 -20.875 73.5 C-21.535 73.5 -22.195 73.5 -22.875 73.5 C-22.875 88.02 -22.875 102.54 -22.875 117.5 C-30.135 117.5 -37.395 117.5 -44.875 117.5 C-44.875 79.22 -44.875 40.94 -44.875 1.5 C-37.945 1.5 -31.015 1.5 -23.875 1.5 C-23.875 6.12 -23.875 10.74 -23.875 15.5 C-23.215 15.5 -22.555 15.5 -21.875 15.5 C-21.7925 14.613125 -21.71 13.72625 -21.625 12.8125 C-20.62967814 8.41649513 -19.0263584 5.89830462 -15.19897461 3.41064453 C-10.02887294 0.64528714 -5.82959858 -0.14427226 0 0 Z " fill="#F4F5F6" transform="translate(286.875,95.5)"/>
<path d="M0 0 C9.14771809 6.45990777 14.21423382 14.9077402 16.93359375 25.6796875 C19.42144373 40.26618886 18.08334693 54.63980985 9.53515625 67.05078125 C3.03457391 75.32662302 -4.98149166 79.9171459 -15.41015625 81.52734375 C-28.27893463 82.32999762 -39.22930238 81.64500366 -49.6328125 73.15625 C-58.76847979 64.78356151 -63.16742262 55.07687928 -63.74609375 42.6953125 C-64.02533196 27.31127083 -61.66155572 15.23922012 -50.68359375 3.71484375 C-37.25287112 -8.55065637 -15.22672156 -9.3038477 0 0 Z " fill="#F6F7F8" transform="translate(504.41015625,101.47265625)"/>
<path d="M0 0 C3.68267123 3.85548266 4.46735014 7.09609673 4.45605469 12.21801758 C4.42930664 12.99169678 4.40255859 13.76537598 4.375 14.5625 C4.3426123 15.7858606 4.3426123 15.7858606 4.30957031 17.03393555 C4.25337138 18.77758998 4.18531267 20.52089563 4.10644531 22.26367188 C3.99694339 25.07857457 3.97917871 27.88629862 3.9609375 30.703125 C3.62620895 44.12238106 3.62620895 44.12238106 0.00390625 48.3046875 C-2.55950064 49.62173545 -5.05010899 50.5111271 -7.81787109 51.29785156 C-12.52933299 52.81386906 -16.98913481 55.03988508 -21.5 57.0625 C-45.91539093 67.68861908 -70.62862427 77.88201417 -95.875 86.375 C-96.65544678 86.63829102 -97.43589355 86.90158203 -98.23999023 87.17285156 C-103.75401928 89 -103.75401928 89 -106 89 C-106 88.01 -106 87.02 -106 86 C-105.34 86 -104.68 86 -104 86 C-104.33 85.01 -104.66 84.02 -105 83 C-105.75216407 73.27972583 -104.72649279 63.54202093 -103.75 53.875 C-103.64075195 52.6890625 -103.53150391 51.503125 -103.41894531 50.28125 C-103.29616211 49.15460938 -103.17337891 48.02796875 -103.046875 46.8671875 C-102.94213867 45.85769043 -102.83740234 44.84819336 -102.72949219 43.80810547 C-101.60568482 39.48212409 -99.29503405 36.86406371 -95.6171875 34.41015625 C-88.76235656 31.04132908 -81.87093242 28.4523666 -74.58349609 26.17993164 C-69.98947636 24.73655069 -65.6622929 23.00932754 -61.28344727 21.00830078 C-57.44731131 19.31437995 -53.50689647 17.91858463 -49.5625 16.5 C-42.13796869 13.79853187 -34.72487816 11.0827734 -27.4921875 7.89453125 C-25 7 -25 7 -21 7 C-21 6.34 -21 5.68 -21 5 C-18.82076747 3.9572327 -16.63456196 2.94142598 -14.4375 1.9375 C-13.82841797 1.64294922 -13.21933594 1.34839844 -12.59179688 1.04492188 C-8.00450551 -1.01814567 -4.81152393 -1.5504435 0 0 Z " fill="#EEF3F6" transform="translate(179,48)"/>
<path d="M0 0 C10.22108831 -0.25552721 18.68241218 0.79635703 26.7734375 7.4296875 C32.47956737 13.04705535 33.51296143 17.01384766 34.53125 25.16015625 C27.93125 25.16015625 21.33125 25.16015625 14.53125 25.16015625 C13.54125 23.18015625 12.55125 21.20015625 11.53125 19.16015625 C6.43112934 15.33506575 0.65185554 15.4603919 -5.46875 16.16015625 C-9.20905185 17.76314276 -10.20033465 18.75753323 -12.46875 22.16015625 C-12.54450878 25.20654452 -12.54450878 25.20654452 -11.46875 28.16015625 C-9.25383316 30.0226643 -9.25383316 30.0226643 -6.46875 31.16015625 C-5.77652344 31.47726563 -5.08429687 31.794375 -4.37109375 32.12109375 C-0.4159508 33.53706687 3.60066403 34.24179307 7.71875 35.03515625 C27.83554219 39.16539708 27.83554219 39.16539708 34.53125 49.16015625 C37.35146164 54.80057954 37.57547651 61.51722969 35.84375 67.55859375 C32.70719116 75.21702492 28.29505143 80.79752331 20.75390625 84.3359375 C14.04126892 86.82515802 8.24320028 87.47090154 1.15625 87.41015625 C-0.18566406 87.42175781 -0.18566406 87.42175781 -1.5546875 87.43359375 C-12.04090089 87.40311057 -21.59823993 85.58338936 -29.51953125 78.265625 C-34.55951804 72.808248 -36.46875 68.71235596 -36.46875 61.16015625 C-29.20875 61.16015625 -21.94875 61.16015625 -14.46875 61.16015625 C-11.46875 67.16015625 -11.46875 67.16015625 -11.46875 69.16015625 C-3.12950431 70.9632364 4.95682225 71.35026522 12.53125 67.16015625 C14.82952312 65.28077453 14.82952312 65.28077453 14.84375 62.22265625 C14.49002843 58.75618486 14.11436187 58.29044728 11.53125 56.16015625 C5.85986532 53.68659778 0.34409391 52.4392767 -5.71875 51.34765625 C-15.75528996 49.37861617 -25.27611032 46.92080202 -31.46875 38.16015625 C-35.06451314 32.70925416 -33.98272183 25.4068908 -33.46875 19.16015625 C-31.81144822 12.40507812 -26.98137203 8.09625191 -21.46875 4.16015625 C-14.63092822 0.28969109 -7.66166218 0.35374792 0 0 Z " fill="#F5F6F7" transform="translate(652.46875,95.83984375)"/>
<path d="M0 0 C9.12455131 5.19208475 16.03550701 12.14505457 19.3203125 22.3203125 C19.3203125 24.3003125 19.3203125 26.2803125 19.3203125 28.3203125 C12.3903125 28.3203125 5.4603125 28.3203125 -1.6796875 28.3203125 C-2.9996875 25.6803125 -4.3196875 23.0403125 -5.6796875 20.3203125 C-10.50511364 15.83955965 -13.63517449 14.94865956 -20.078125 15.05078125 C-24.93569701 15.55404322 -28.07043821 17.34727016 -31.1484375 21.12109375 C-37.07603762 29.99526253 -38.00375773 39.76897448 -36.1796875 50.171875 C-34.57858887 56.19418918 -32.45583889 61.02764916 -26.9296875 64.3828125 C-21.52393105 66.82412187 -16.38466035 66.70594242 -10.6796875 65.3203125 C-4.65267431 62.47117899 -4.5270674 60.96419894 -1.6796875 54.3203125 C5.2503125 54.3203125 12.1803125 54.3203125 19.3203125 54.3203125 C18.06900876 64.33074241 14.68036586 71.43484724 6.6796875 77.78125 C-3.94467751 84.71171327 -15.33747916 85.76953387 -27.6796875 84.3203125 C-37.37300358 82.15770404 -45.40621581 77.00091803 -51.6796875 69.3203125 C-59.3780188 57.08401749 -60.57510174 42.62662744 -57.9921875 28.58203125 C-54.97720856 17.89141844 -48.90590986 7.57232749 -39.1171875 1.8125 C-27.49225735 -4.10134528 -12.19766549 -5.46791901 0 0 Z " fill="#F5F6F7" transform="translate(589.6796875,98.6796875)"/>
<path d="M0 0 C33.51336898 0 33.51336898 0 42.5625 8.4609375 C51.31527405 17.78264186 52.38496336 29.24128019 52.21484375 41.43359375 C51.85646167 52.27632111 48.19337822 61.10521154 40.5 68.75 C28.63294422 78.30046662 14.91850283 76 0 76 C0 50.92 0 25.84 0 0 Z " fill="#121924" transform="translate(357,87)"/>
<path d="M0 0 C0.07854226 13.88234509 -0.16797981 27.74700173 -0.5 41.625 C-0.54836664 43.71093311 -0.59654479 45.79687061 -0.64453125 47.8828125 C-0.76085588 52.92192795 -0.87970334 57.96097788 -1 63 C-0.34 63 0.32 63 1 63 C1.0825 62.13375 1.165 61.2675 1.25 60.375 C2.10693321 56.51880057 3.77784068 54.22571515 6 51 C6 50.01 6 49.02 6 48 C6.38650478 42.10580214 7.17210602 38.72857492 11 34 C11.99 33.34 12.98 32.68 14 32 C14 31.01 14 30.02 14 29 C15.3125 26.3125 15.3125 26.3125 17 24 C18.33333333 24 19.66666667 24 21 24 C21.20380586 32.94481284 21.15895976 41.88625685 20.5 50.8125 C20.47180176 51.57030762 20.44360352 52.32811523 20.41455078 53.10888672 C20.21875 55.26953125 20.21875 55.26953125 19 59 C17.09046234 60.24984933 15.15400918 61.03856304 13.04785156 61.91186523 C8.46247272 64.34832607 6.69257496 68.98351332 5.07226562 73.70117188 C4.20782347 76.70153172 3.46213171 79.71003992 2.75 82.75 C2.49476562 83.75804687 2.23953125 84.76609375 1.9765625 85.8046875 C0.46759215 92.01529179 -0.40318362 98.04028555 -0.77416992 104.42114258 C-0.9778782 106.74738097 -1.37187722 108.71646907 -2.0625 110.9375 C-3.13534314 113.86491087 -3.13534314 113.86491087 -2.9375 116.5 C-3.00854424 119.34176954 -3.96882315 121.19016495 -5.140625 123.73828125 C-8.63441398 132.9332986 -9.6315279 143.30799762 -11 153 C-13.1875 153.75 -13.1875 153.75 -16 154 C-18.63357544 152.50057983 -18.63357544 152.50057983 -21 150 C-21.51399546 147.2151679 -21.70220416 145.02692386 -21.67529297 142.24072266 C-21.69342796 141.07388947 -21.69342796 141.07388947 -21.71192932 139.88348389 C-21.74583344 137.30997001 -21.74434349 134.73777883 -21.7421875 132.1640625 C-21.75785837 130.36483947 -21.77555964 128.56563309 -21.79519653 126.76644897 C-21.83150111 122.98859486 -21.85185057 119.21112523 -21.859375 115.43310547 C-21.86897098 110.62743937 -21.90425424 105.82245262 -21.95004082 101.01700783 C-21.99326302 96.39941266 -22.02496178 91.78176166 -22.0546875 87.1640625 C-22.06084957 86.29945026 -22.06701164 85.43483803 -22.07336044 84.54402542 C-22.12989824 75.34326304 -21.95957545 66.27315554 -21.20730591 57.09573364 C-20.90278331 52.54824693 -21.0385661 48.05745596 -21.21875 43.5078125 C-21.26541968 41.63026643 -21.30962069 39.75265764 -21.3515625 37.875 C-21.41960749 34.98358094 -21.50124465 32.09570657 -21.62402344 29.20605469 C-22.28307146 13.02397461 -22.28307146 13.02397461 -19.09277344 7.99145508 C-16.81486202 5.94045045 -14.68649933 4.4578759 -12 3 C-11.3512793 2.54826416 -10.70255859 2.09652832 -10.03417969 1.63110352 C-6.27495786 -0.88378914 -4.26924262 -1.09635312 0 0 Z " fill="#2182DE" transform="translate(53,79)"/>
<path d="M0 0 C1.66463928 3.32927855 1.23435017 6.30898479 1 10 C0.67 10.66 0.34 11.32 0 12 C0.66 12 1.32 12 2 12 C2 13.98 2 15.96 2 18 C1.43152344 18.18175781 0.86304688 18.36351563 0.27734375 18.55078125 C-3.47226835 19.77143961 -7.11727949 21.00645447 -10.6875 22.6875 C-14.11316894 24.04484052 -16.37866483 24 -20 24 C-21.62514468 25.45833358 -21.62514468 25.45833358 -23 27 C-24.32 27 -25.64 27 -27 27 C-27 27.66 -27 28.32 -27 29 C-28.24652344 29.42410156 -29.49304688 29.84820312 -30.77734375 30.28515625 C-40.1437289 33.50317461 -49.40079507 36.80516478 -58.44116211 40.86547852 C-62.46621821 42.61216308 -65.61492552 43.33261401 -70 43 C-70.33 43.99 -70.66 44.98 -71 46 C-73.28515625 46.94921875 -73.28515625 46.94921875 -76.0625 47.6875 C-76.98160156 47.93886719 -77.90070313 48.19023438 -78.84765625 48.44921875 C-79.55792969 48.63097656 -80.26820312 48.81273437 -81 49 C-81 49.66 -81 50.32 -81 51 C-83.475 51.495 -83.475 51.495 -86 52 C-86.33 52.99 -86.66 53.98 -87 55 C-88.95890881 56.39300182 -90.9639118 57.72245446 -93 59 C-93.7425 59.5775 -94.485 60.155 -95.25 60.75 C-97 62 -97 62 -99 62 C-99.02693575 59.87506859 -99.04636628 57.75004088 -99.0625 55.625 C-99.07410156 54.44164062 -99.08570313 53.25828125 -99.09765625 52.0390625 C-99 49 -99 49 -98 47 C-98.103125 45.96875 -98.20625 44.9375 -98.3125 43.875 C-97.89232909 38.6648807 -95.94726692 35.41252132 -92 32 C-83.93765622 27.56973189 -74.78395264 24.81013109 -66.1875 21.5625 C-63.22176476 20.44113868 -60.25697103 19.3173399 -57.29296875 18.19140625 C-56.57865692 17.92115631 -55.86434509 17.65090637 -55.12838745 17.37246704 C-49.84963021 15.36205953 -44.6619739 13.17930216 -39.5090332 10.86303711 C-36.84708257 9.94740069 -34.79394316 9.83203061 -32 10 C-32 9.34 -32 8.68 -32 8 C-28.50980961 6.47641844 -25.00651331 4.98558388 -21.5 3.5 C-20.51773438 3.07074219 -19.53546875 2.64148437 -18.5234375 2.19921875 C-6.06589674 -3.03294837 -6.06589674 -3.03294837 0 0 Z " fill="#D4E5F1" transform="translate(153,36)"/>
<path d="M0 0 C6.44906827 3.42568655 9.12647412 9.38831177 11.3046875 16.1171875 C13.20148529 26.44419771 11.72933774 36.36378838 6.94140625 45.59765625 C3.4242 49.70106354 0.3273947 51.88166356 -4.99609375 52.5703125 C-10.45558903 52.74092173 -14.74196702 52.48453249 -19.30859375 49.22265625 C-25.95084111 42.73487976 -27.47141837 35.93637285 -27.68359375 26.78515625 C-27.49094441 18.04588177 -26.14836015 10.03571705 -20.30859375 3.22265625 C-14.18821978 -1.52375622 -7.42826441 -2.50122609 0 0 Z " fill="#131925" transform="translate(489.30859375,113.77734375)"/>
<path d="M0 0 C6.12668492 3.29591727 9.35049481 8.00015618 11.32421875 14.49609375 C13.06726937 23.50185529 13.04173139 33.93901094 8.86328125 42.28125 C6.24789094 46.11069803 3.45168061 49.2509369 -0.44921875 51.78125 C-6.10732307 52.83392057 -13.18349592 53.58339855 -18.13671875 50.28125 C-25.0826926 42.84783939 -26.49677204 35.31591598 -26.51171875 25.40625 C-26.53621094 24.55933594 -26.56070312 23.71242187 -26.5859375 22.83984375 C-26.62183247 15.02670558 -24.5413838 8.49603901 -19.07421875 2.78125 C-13.85604677 -1.65974743 -6.49202008 -2.18378738 0 0 Z " fill="#141A25" transform="translate(290.13671875,113.71875)"/>
<path d="M0 0 C4.4793783 4.23052395 5.92963122 8.81856775 6.125 14.875 C6.08375 15.90625 6.0425 16.9375 6 18 C6.66 18.33 7.32 18.66 8 19 C6.87464844 19.14695312 6.87464844 19.14695312 5.7265625 19.296875 C0.37567224 20.07861715 -4.40968374 21.00003597 -9.375 23.1875 C-13.29953721 24.90290255 -15.78190182 25.33203101 -20 24 C-20.495 25.485 -20.495 25.485 -21 27 C-23.76264289 27.59732819 -26.16032769 28 -29 28 C-29.66 28.99 -30.32 29.98 -31 31 C-32.32 31 -33.64 31 -35 31 C-35.66 31.99 -36.32 32.98 -37 34 C-39.32817964 34.36760731 -41.6618385 34.70241581 -44 35 C-44.495 35.99 -44.495 35.99 -45 37 C-47.1796875 37.78125 -47.1796875 37.78125 -49.875 38.5 C-53.15521035 39.37982318 -55.12811631 40.08541088 -58 42 C-58.93714844 42.28230469 -59.87429687 42.56460938 -60.83984375 42.85546875 C-64.43044316 44.15589598 -66.65522766 45.85186409 -69.5625 48.3125 C-70.47128906 49.07175781 -71.38007812 49.83101562 -72.31640625 50.61328125 C-75.06787256 53.00220463 -75.06787256 53.00220463 -77.71484375 55.79296875 C-80 58 -80 58 -82 58 C-82 62.95 -82 67.9 -82 73 C-82.33 73 -82.66 73 -83 73 C-83.20693451 68.62572279 -83.32883286 64.2527333 -83.4375 59.875 C-83.49615234 58.65683594 -83.55480469 57.43867187 -83.61523438 56.18359375 C-83.79303242 46.58249926 -82.14460032 38.60911329 -76 31 C-71.37078254 27.73346008 -66.53687727 25.82702899 -61.25 23.875 C-59.82391181 23.30720202 -58.39985392 22.73428039 -56.9777832 22.15649414 C-54.07863968 20.98286953 -51.17221783 19.83124065 -48.25830078 18.69482422 C-41.8064377 16.15607174 -35.50578116 13.28973734 -29.1875 10.4375 C-26.09277608 9.05973748 -22.99724038 7.68388736 -19.89990234 6.31201172 C-17.92448066 5.41826562 -15.96144307 4.49675022 -14.01025391 3.55126953 C-13.05425293 3.09220215 -12.09825195 2.63313477 -11.11328125 2.16015625 C-9.85124878 1.53765991 -9.85124878 1.53765991 -8.5637207 0.90258789 C-5.52477602 -0.16730817 -3.20014254 -0.30381275 0 0 Z M-15 20 C-15.66 21.32 -16.32 22.64 -17 24 C-16.01 23.34 -15.02 22.68 -14 22 C-14.33 21.34 -14.66 20.68 -15 20 Z " fill="#8CCEEF" transform="translate(113,27)"/>
<path d="M0 0 C0.99 0.99 0.99 0.99 2 2 C2.86625 1.4740625 2.86625 1.4740625 3.75 0.9375 C6.39786506 -0.16577711 7.33185326 0.19843491 10 1 C7.79591837 8.46938776 7.79591837 8.46938776 4 11 C1 12 1 12 -2 12 C-2.33 12.66 -2.66 13.32 -3 14 C-3.99 14 -4.98 14 -6 14 C-7.0043827 14.99559801 -8.00352316 15.99648921 -9 17 C-10.8193262 17.98400406 -12.67822592 18.89693317 -14.5625 19.75 C-15.53316406 20.19859375 -16.50382812 20.6471875 -17.50390625 21.109375 C-18.32761719 21.40328125 -19.15132813 21.6971875 -20 22 C-20.66 21.67 -21.32 21.34 -22 21 C-22.66 21.66 -23.32 22.32 -24 23 C-26.50121027 24.66747352 -28.70253857 25.81930839 -31.4375 27 C-33.70847331 27.98370417 -35.9142057 28.95267632 -38.08203125 30.1484375 C-40.90085145 31.39997071 -43.06658606 30.66668499 -46 30 C-46 30.66 -46 31.32 -46 32 C-52.28683215 35.43872656 -57.98149708 37.66634973 -65 39 C-68.58912823 39.94807161 -70.49447694 40.49447694 -73.125 43.125 C-73.74375 43.74375 -74.3625 44.3625 -75 45 C-76.32 45 -77.64 45 -79 45 C-85.24656586 46.2239564 -85.24656586 46.2239564 -90.25 49.5625 C-92.94472259 51.77602213 -95.61851865 51.06148148 -99 51 C-99.66 51.66 -100.32 52.32 -101 53 C-102.32 53 -103.64 53 -105 53 C-107.04190477 54.70710528 -107.04190477 54.70710528 -109 57 C-110.21816406 58.02480469 -110.21816406 58.02480469 -111.4609375 59.0703125 C-114.76971919 62.88813753 -115.57873681 66.34104022 -116.6875 71.1875 C-117.00146729 72.46234253 -117.00146729 72.46234253 -117.32177734 73.76293945 C-118.54229682 78.78495873 -119.60201152 83.82614958 -120.53125 88.91015625 C-121.3198473 92.42598589 -122.64237886 95.66765721 -124 99 C-124.33 99 -124.66 99 -125 99 C-124.48883894 91.40086191 -123.35927104 84.1619441 -121.625 76.75 C-121.41617188 75.80898437 -121.20734375 74.86796875 -120.9921875 73.8984375 C-119.13668219 65.82020097 -116.21657064 59.12455039 -112 52 C-112.66 51.67 -113.32 51.34 -114 51 C-113.36578125 50.69449219 -112.7315625 50.38898438 -112.078125 50.07421875 C-108.83869425 46.84087715 -109.07822229 43.23324401 -108.75 38.8125 C-108.63398437 37.5450293 -108.63398437 37.5450293 -108.515625 36.25195312 C-108.32737021 34.16938451 -108.16151456 32.08481293 -108 30 C-107.67 30 -107.34 30 -107 30 C-106.505 36.93 -106.505 36.93 -106 44 C-106.66 44 -107.32 44 -108 44 C-108 44.99 -108 45.98 -108 47 C-106.99582031 46.61328125 -105.99164063 46.2265625 -104.95703125 45.828125 C-98.43697296 43.33860446 -91.94804583 40.91517331 -85.25 38.9375 C-80.17206673 37.41846013 -75.36213016 35.57812772 -70.49609375 33.484375 C-65.21860442 31.24365327 -59.88535889 29.14503402 -54.55639648 27.03027344 C-48.0077035 24.42368452 -41.49527604 21.73694498 -35 19 C-34.34082581 18.72226746 -33.68165161 18.44453491 -33.00250244 18.15838623 C-28.53337953 16.27161719 -24.07452168 14.362435 -19.62329102 12.43383789 C-18.06549576 11.76216727 -16.50520132 11.09626723 -14.94262695 10.43579102 C-12.65985577 9.46990307 -10.38607356 8.48519318 -8.11328125 7.49609375 C-7.41237869 7.20431747 -6.71147614 6.9125412 -5.98933411 6.61192322 C-2.22761716 5.04384083 -2.22761716 5.04384083 -0.05541992 1.78149414 C-0.03713135 1.19360107 -0.01884277 0.60570801 0 0 Z " fill="#85CFF2" transform="translate(181,90)"/>
<path d="M0 0 C0.33 0 0.66 0 1 0 C1.95261487 4.76307437 2.08333357 9.1666528 2 14 C2.99 14.495 2.99 14.495 4 15 C3.46632813 15.17015625 2.93265625 15.3403125 2.3828125 15.515625 C-1.59092436 16.80812073 -5.50608411 18.16973858 -9.375 19.75 C-14.31345739 21.76082274 -19.30621809 23.60424818 -24.3125 25.4375 C-30.69570692 27.7769823 -37.06202833 30.14912213 -43.3984375 32.61328125 C-46.35638235 33.75218626 -49.32007389 34.87088366 -52.2890625 35.98046875 C-53.22959473 36.33375244 -54.17012695 36.68703613 -55.13916016 37.05102539 C-57.00979314 37.75327104 -58.88181447 38.45183235 -60.75537109 39.14624023 C-69.63500003 42.34299578 -69.63500003 42.34299578 -76 49 C-76.68255602 51.98703656 -76.68255602 51.98703656 -76.94921875 55.296875 C-77.07490234 56.50214844 -77.20058594 57.70742187 -77.33007812 58.94921875 C-77.44802734 60.20347656 -77.56597656 61.45773438 -77.6875 62.75 C-77.81705078 64.01972656 -77.94660156 65.28945312 -78.08007812 66.59765625 C-78.39810535 69.73081338 -78.7042801 72.86467179 -79 76 C-79.33 76 -79.66 76 -80 76 C-80.495 70.06 -80.495 70.06 -81 64 C-81.99 64 -82.98 64 -84 64 C-86.10770759 66.88834003 -87 68.38462395 -87 72 C-87.78375 72.7425 -88.5675 73.485 -89.375 74.25 C-93.00750338 78.05547974 -93.68611049 81.70765537 -94.38671875 86.82421875 C-95.0518832 90.26866906 -96.16919873 93.15968938 -97.5625 96.375 C-98.01753906 97.43460937 -98.47257812 98.49421875 -98.94140625 99.5859375 C-99.29074219 100.38257813 -99.64007813 101.17921875 -100 102 C-100.66 102 -101.32 102 -102 102 C-102.02497827 95.84765916 -102.04298991 89.69534874 -102.05493164 83.54296875 C-102.05991734 81.45604945 -102.06670831 79.36913356 -102.07543945 77.28222656 C-102.19447144 48.07037758 -102.19447144 48.07037758 -100 38 C-99.67 38 -99.34 38 -99 38 C-98.61866701 39.9914056 -98.28674418 41.99279077 -98 44 C-98.495 44.495 -98.495 44.495 -99 45 C-99.23481693 47.18292774 -99.41363323 49.37203174 -99.5625 51.5625 C-99.68818359 53.35880859 -99.68818359 53.35880859 -99.81640625 55.19140625 C-99.87699219 56.11824219 -99.93757813 57.04507813 -100 58 C-95.79871207 55.23240532 -95.79871207 55.23240532 -91.75 52.25 C-90 51 -90 51 -88 51 C-87.87625 50.360625 -87.7525 49.72125 -87.625 49.0625 C-87.41875 48.381875 -87.2125 47.70125 -87 47 C-86.01 46.505 -86.01 46.505 -85 46 C-83.515 46.495 -83.515 46.495 -82 47 C-82 46.34 -82 45.68 -82 45 C-80.70990357 44.49596232 -79.41786211 43.99690074 -78.125 43.5 C-77.40570313 43.2215625 -76.68640625 42.943125 -75.9453125 42.65625 C-74 42 -74 42 -72 42 C-71.67 40.68 -71.34 39.36 -71 38 C-70.12907715 38.04294189 -69.2581543 38.08588379 -68.36083984 38.13012695 C-64.80542508 37.99246634 -62.49806949 37.27349465 -59.2265625 35.91796875 C-58.1540625 35.48033203 -57.0815625 35.04269531 -55.9765625 34.59179688 C-54.87054688 34.12837891 -53.76453125 33.66496094 -52.625 33.1875 C-50.42996002 32.28449353 -48.23465326 31.38213522 -46.0390625 30.48046875 C-44.48106934 29.83924072 -44.48106934 29.83924072 -42.89160156 29.18505859 C-32.67985167 25 -32.67985167 25 -28 25 C-28 24.34 -28 23.68 -28 23 C-26.8553125 22.566875 -26.8553125 22.566875 -25.6875 22.125 C-22.84970692 21.03730987 -22.84970692 21.03730987 -20 19 C-17.67504723 18.61250787 -15.3400417 18.28241883 -13 18 C-10.23135047 17.63141012 -10.23135047 17.63141012 -8 17 C-7.67 16.34 -7.34 15.68 -7 15 C-5.33499557 14.65846063 -3.66821323 14.32550502 -2 14 C0.1385485 11.8614515 0.42655063 10.86724686 1 8 C0.34 8 -0.32 8 -1 8 C-0.67 5.36 -0.34 2.72 0 0 Z " fill="#8CC2EC" transform="translate(154,40)"/>
<path d="M0 0 C0.33 0 0.66 0 1 0 C2.23510655 17.97474214 2.54712055 35.99258115 3 54 C3.33 54 3.66 54 4 54 C4.04638693 63.80552475 4.08190153 73.61102329 4.10362434 83.41663551 C4.11405139 87.97001655 4.12819091 92.52332239 4.15087891 97.07666016 C4.17264573 101.47274894 4.18457674 105.86876549 4.18975449 110.26490402 C4.19344335 111.94019075 4.20064677 113.61547363 4.21146011 115.29072952 C4.22602612 117.64133427 4.22797582 119.99164237 4.22705078 122.34228516 C4.23424133 123.03136963 4.24143188 123.7204541 4.24884033 124.43041992 C4.23078741 128.68356971 3.382116 132.00803078 2 136 C2.80161791 138.67145537 2.80161791 138.67145537 4 141 C4 141.99 4 142.98 4 144 C4.66 144 5.32 144 6 144 C6.33 144.99 6.66 145.98 7 147 C6.34 147.33 5.68 147.66 5 148 C4.18247697 146.41925436 3.37118003 144.83528777 2.5625 143.25 C1.88380859 141.92742187 1.88380859 141.92742187 1.19140625 140.578125 C-0.59709522 136.7079251 -1.12533862 133.46315572 -1.12939453 129.21240234 C-1.13250641 128.2476297 -1.13561829 127.28285706 -1.13882446 126.28884888 C-1.13684052 125.23188812 -1.13485657 124.17492737 -1.1328125 123.0859375 C-1.13413177 121.95944794 -1.13545105 120.83295837 -1.1368103 119.67233276 C-1.13875283 115.9065288 -1.13230879 112.14079669 -1.125 108.375 C-1.12411377 107.08364136 -1.12322754 105.79228271 -1.12231445 104.46179199 C-1.09464196 69.63808392 -0.54949457 34.81869666 0 0 Z " fill="#42A7EA" transform="translate(28,94)"/>
<path d="M0 0 C0.66 0.33 1.32 0.66 2 1 C2 4.16215466 1.53720048 6.31914121 -0.44702148 8.83398438 C-2.11961244 11.16682936 -2.78882861 13.02142912 -3.53515625 15.78125 C-3.78604004 16.69962646 -4.03692383 17.61800293 -4.29541016 18.56420898 C-4.5485498 19.53302002 -4.80168945 20.50183105 -5.0625 21.5 C-5.46154541 22.99285522 -5.46154541 22.99285522 -5.86865234 24.51586914 C-7.40604545 30.37759944 -8.66178281 36.18108318 -9.515625 42.18359375 C-10.09098929 45.52905867 -10.96558521 48.72960451 -11.875 52 C-15.40463871 64.80152547 -17.72092828 77.92532542 -20 91 C-20.66 89.68 -21.32 88.36 -22 87 C-22.66 88.65 -23.32 90.3 -24 92 C-27.83428483 84.33143035 -21.38487838 67.79473235 -19 60 C-18.67 59.34 -18.34 58.68 -18 58 C-17.74511358 55.99276945 -17.49188903 53.98501128 -17.28125 51.97265625 C-17 50 -17 50 -16 47 C-15.80866987 45.2197979 -15.6205879 43.43912845 -15.45605469 41.65625 C-14.20312825 28.54505769 -12.50386737 11.94530384 -3 2 C-2.01 1.34 -1.02 0.68 0 0 Z " fill="#45A6E9" transform="translate(67,139)"/>
<path d="M0 0 C0.99 0.33 1.98 0.66 3 1 C3.26964377 12.8343655 2.53726252 24.2646477 1 36 C0.67 36 0.34 36 0 36 C0 32.7 0 29.4 0 26 C-0.28875 27.093125 -0.5775 28.18625 -0.875 29.3125 C-2 33 -2 33 -4 36 C-4.721875 36.268125 -5.44375 36.53625 -6.1875 36.8125 C-9.5955434 38.25145166 -11.7123639 40.30583572 -14.3515625 42.85546875 C-14.89554688 43.23316406 -15.43953125 43.61085937 -16 44 C-16.99 43.67 -17.98 43.34 -19 43 C-19 42.01 -19 41.02 -19 40 C-18.34 40 -17.68 40 -17 40 C-16.9175 39.13375 -16.835 38.2675 -16.75 37.375 C-15.89306679 33.51880057 -14.22215932 31.22571515 -12 28 C-12 27.01 -12 26.02 -12 25 C-11.61349522 19.10580214 -10.82789398 15.72857492 -7 11 C-6.01 10.34 -5.02 9.68 -4 9 C-4 8.01 -4 7.02 -4 6 C-1.57894737 1.57894737 -1.57894737 1.57894737 0 0 Z " fill="#4D9EE5" transform="translate(71,102)"/>
<path d="M0 0 C0.33 0 0.66 0 1 0 C1.95261487 4.76307437 2.08333357 9.1666528 2 14 C2.99 14.495 2.99 14.495 4 15 C3.46632813 15.17015625 2.93265625 15.3403125 2.3828125 15.515625 C-1.59092436 16.80812073 -5.50608411 18.16973858 -9.375 19.75 C-14.31345739 21.76082274 -19.30621809 23.60424818 -24.3125 25.4375 C-30.69570692 27.7769823 -37.06202833 30.14912213 -43.3984375 32.61328125 C-46.35638235 33.75218626 -49.32007389 34.87088366 -52.2890625 35.98046875 C-53.22959473 36.33375244 -54.17012695 36.68703613 -55.13916016 37.05102539 C-57.00979314 37.75327104 -58.88181447 38.45183235 -60.75537109 39.14624023 C-68.26405231 41.85542333 -68.26405231 41.85542333 -74.5546875 46.6171875 C-76.35344594 48.3381618 -77.71393275 48.58056546 -80.125 49.125 C-87.37806779 51.38492814 -92.75508913 57.29326891 -96.4375 63.8125 C-98.70471442 68.91632059 -99.30358306 74.50197154 -100 80 C-100.33 80 -100.66 80 -101 80 C-101.02477057 74.82218777 -101.04289347 69.64441025 -101.05493164 64.46655273 C-101.0599517 62.70612995 -101.0667691 60.94571132 -101.07543945 59.18530273 C-101.08760703 56.65086846 -101.09325166 54.11648946 -101.09765625 51.58203125 C-101.10281754 50.79850784 -101.10797882 50.01498444 -101.11329651 49.2077179 C-101.11369066 45.34408861 -100.9444276 41.754835 -100 38 C-99.67 38 -99.34 38 -99 38 C-98.61866701 39.9914056 -98.28674418 41.99279077 -98 44 C-98.495 44.495 -98.495 44.495 -99 45 C-99.23481693 47.18292774 -99.41363323 49.37203174 -99.5625 51.5625 C-99.64628906 52.76003906 -99.73007813 53.95757812 -99.81640625 55.19140625 C-99.87699219 56.11824219 -99.93757813 57.04507813 -100 58 C-95.79871207 55.23240532 -95.79871207 55.23240532 -91.75 52.25 C-90 51 -90 51 -88 51 C-87.87625 50.360625 -87.7525 49.72125 -87.625 49.0625 C-87.41875 48.381875 -87.2125 47.70125 -87 47 C-86.01 46.505 -86.01 46.505 -85 46 C-83.515 46.495 -83.515 46.495 -82 47 C-82 46.34 -82 45.68 -82 45 C-80.70990357 44.49596232 -79.41786211 43.99690074 -78.125 43.5 C-77.40570313 43.2215625 -76.68640625 42.943125 -75.9453125 42.65625 C-74 42 -74 42 -72 42 C-71.67 40.68 -71.34 39.36 -71 38 C-70.12907715 38.04294189 -69.2581543 38.08588379 -68.36083984 38.13012695 C-64.80542508 37.99246634 -62.49806949 37.27349465 -59.2265625 35.91796875 C-58.1540625 35.48033203 -57.0815625 35.04269531 -55.9765625 34.59179688 C-54.87054688 34.12837891 -53.76453125 33.66496094 -52.625 33.1875 C-50.42996002 32.28449353 -48.23465326 31.38213522 -46.0390625 30.48046875 C-44.48106934 29.83924072 -44.48106934 29.83924072 -42.89160156 29.18505859 C-32.67985167 25 -32.67985167 25 -28 25 C-28 24.34 -28 23.68 -28 23 C-26.8553125 22.566875 -26.8553125 22.566875 -25.6875 22.125 C-22.84970692 21.03730987 -22.84970692 21.03730987 -20 19 C-17.67504723 18.61250787 -15.3400417 18.28241883 -13 18 C-10.23135047 17.63141012 -10.23135047 17.63141012 -8 17 C-7.67 16.34 -7.34 15.68 -7 15 C-5.33499557 14.65846063 -3.66821323 14.32550502 -2 14 C0.1385485 11.8614515 0.42655063 10.86724686 1 8 C0.34 8 -0.32 8 -1 8 C-0.67 5.36 -0.34 2.72 0 0 Z " fill="#ACCEE9" transform="translate(154,40)"/>
<path d="M0 0 C-0.13208008 2.33666992 -0.13208008 2.33666992 -1 5 C-3.51831055 6.45043945 -3.51831055 6.45043945 -6.88671875 7.61328125 C-8.74466064 8.27263672 -8.74466064 8.27263672 -10.64013672 8.9453125 C-11.98915061 9.4013589 -13.33827404 9.85708139 -14.6875 10.3125 C-16.05556405 10.79093257 -17.42291271 11.27141548 -18.78955078 11.75390625 C-21.54475678 12.72404061 -24.3031956 13.68390123 -27.06494141 14.63525391 C-32.52667955 16.52137304 -37.94997342 18.51125087 -43.375 20.5 C-45.07017041 21.11497516 -46.76547412 21.72958303 -48.4609375 22.34375 C-51.39352984 23.40726158 -54.31287977 24.49912479 -57.2265625 25.61328125 C-60.44340576 26.82452696 -63.67293088 27.81414436 -67 28.6875 C-67.94875 28.93886719 -68.8975 29.19023438 -69.875 29.44921875 C-70.57625 29.63097656 -71.2775 29.81273438 -72 30 C-71.796875 27.6484375 -71.796875 27.6484375 -71 25 C-69.015625 23.6640625 -69.015625 23.6640625 -66.25 22.625 C-65.17234375 22.21507813 -64.0946875 21.80515625 -62.984375 21.3828125 C-57.25276939 19.36216857 -51.47442804 17.47505226 -45.69970703 15.58203125 C-40.17200609 13.76081689 -34.79391272 11.77828199 -29.44921875 9.46875 C-24.30812159 7.27956253 -19.12717854 5.19593872 -13.9375 3.125 C-12.91221191 2.70686035 -11.88692383 2.2887207 -10.83056641 1.85791016 C-9.86425293 1.47425293 -8.89793945 1.0905957 -7.90234375 0.6953125 C-7.03085693 0.34484863 -6.15937012 -0.00561523 -5.26147461 -0.36669922 C-3 -1 -3 -1 0 0 Z " fill="#85BDE7" transform="translate(166,86)"/>
<path d="M0 0 C0.99 0 1.98 0 3 0 C3 6.6 3 13.2 3 20 C2.67 20 2.34 20 2 20 C1.67 16.04 1.34 12.08 1 8 C0.01 8 -0.98 8 -2 8 C-4.10770759 10.88834003 -5 12.38462395 -5 16 C-5.78375 16.7425 -6.5675 17.485 -7.375 18.25 C-11.00750338 22.05547974 -11.68611049 25.70765537 -12.38671875 30.82421875 C-13.0518832 34.26866906 -14.16919873 37.15968938 -15.5625 40.375 C-16.01753906 41.43460938 -16.47257812 42.49421875 -16.94140625 43.5859375 C-17.29074219 44.38257813 -17.64007813 45.17921875 -18 46 C-18.66 46 -19.32 46 -20 46 C-20 31.15 -20 16.3 -20 1 C-19.67 1 -19.34 1 -19 1 C-19 11.56 -19 22.12 -19 33 C-18.34 33 -17.68 33 -17 33 C-15.87928516 28.39745265 -14.95818784 23.98703716 -14.6875 19.25 C-14.34592335 15.6381432 -13.98464667 14.98070992 -11.5625 11.9375 C-9 10 -9 10 -7 10 C-6.938125 9.443125 -6.87625 8.88625 -6.8125 8.3125 C-5.66383862 5.043233 -3.51178856 3.32340442 -1 1 C-0.67 0.67 -0.34 0.34 0 0 Z " fill="#6DB0E9" transform="translate(72,96)"/>
<path d="M0 0 C0 0.99 0 1.98 0 3 C-0.99 3.495 -0.99 3.495 -2 4 C-1.34 2.68 -0.68 1.36 0 0 Z M14 -1 C14.99 -0.505 14.99 -0.505 16 0 C5.57627653 5.85697536 -5.87696041 9.51172707 -17.08227539 13.56420898 C-19.76232657 14.53598054 -22.43792786 15.51928881 -25.11328125 16.50390625 C-25.93105545 16.79568253 -26.74882965 17.0874588 -27.59138489 17.38807678 C-35.25879003 20.2214809 -39.40110361 23.6736752 -43 31 C-43.77485832 33.77138597 -43.77485832 33.77138597 -44 36 C-44.33 34.68 -44.66 33.36 -45 32 C-47.64 32 -50.28 32 -53 32 C-52.67 31.34 -52.34 30.68 -52 30 C-53.32 29.67 -54.64 29.34 -56 29 C-51.22736161 24.36372271 -47.6519959 21.42542769 -41 20 C-39.57601609 19.47787257 -38.15927253 18.93562301 -36.75 18.375 C-33 17 -33 17 -30 17 C-29.67 16.01 -29.34 15.02 -29 14 C-27.88625 13.896875 -26.7725 13.79375 -25.625 13.6875 C-24.42875 13.460625 -23.2325 13.23375 -22 13 C-21.34 12.01 -20.68 11.02 -20 10 C-18.68 10 -17.36 10 -16 10 C-15.34 9.01 -14.68 8.02 -14 7 C-12 7 -10 7 -8 7 C-7.505 6.505 -7.01 6.01 -6.5 5.5 C-6.005 5.005 -5.51 4.51 -5 4 C-4.11828125 4.02191406 -3.2365625 4.04382812 -2.328125 4.06640625 C1.56747438 3.98867715 4.17369354 2.94960193 7.75 1.4375 C9.81079592 0.56942501 11.8908344 -0.2571309 14 -1 Z " fill="#5EB3E8" transform="translate(98,47)"/>
<path d="M0 0 C-0.5518563 3.86299412 -2.30653421 5.30653421 -5 8 C-5.309375 8.804375 -5.61875 9.60875 -5.9375 10.4375 C-7.30608608 13.73820761 -9.45935198 15.52286818 -12 18 C-12.33 18.7425 -12.66 19.485 -13 20.25 C-14 22 -14 22 -16.625 22.75 C-17.40875 22.8325 -18.1925 22.915 -19 23 C-19.58792514 15.59214319 -18.32516096 11.0674089 -14 5 C-9.94454172 0.51819867 -5.96020905 -0.27721903 0 0 Z " fill="#97D7F3" transform="translate(50,55)"/>
<path d="M0 0 C0.99 0.99 0.99 0.99 2 2 C0.83355957 2.43231934 -0.33288086 2.86463867 -1.53466797 3.31005859 C-22.60425168 11.12179685 -43.66362725 18.94789879 -64.61230469 27.0793457 C-68.06576775 28.41094174 -71.53268466 29.70493325 -75 31 C-75.79148437 31.31324219 -76.58296875 31.62648437 -77.3984375 31.94921875 C-83.02397932 34.05045868 -88.02891303 34.33657484 -94 34 C-93.34 33.01 -92.68 32.02 -92 31 C-91.34 31 -90.68 31 -90 31 C-90 31.66 -90 32.32 -90 33 C-89.14728516 32.70996094 -89.14728516 32.70996094 -88.27734375 32.4140625 C-84.67755687 31.200111 -81.1134628 30.02985863 -77.4375 29.0625 C-74.65095588 28.20120455 -72.4867233 27.27970469 -69.9375 25.9375 C-66.61543776 24.20592315 -63.75336152 23.41704017 -60 23 C-58.33195323 22.67364302 -56.66475686 22.34274406 -55 22 C-55 21.34 -55 20.68 -55 20 C-54.01 19.731875 -53.02 19.46375 -52 19.1875 C-48.7304002 18.2517068 -45.57098843 17.10933207 -42.390625 15.90307617 C-39.6824858 14.88005667 -36.96661656 13.87919185 -34.25 12.87890625 C-32.16663667 12.10685178 -30.08330393 11.33471476 -28 10.5625 C-26.9584375 10.18029297 -25.916875 9.79808594 -24.84375 9.40429688 C-20.28630423 7.70964059 -15.82990952 5.99742467 -11.5 3.77734375 C-8.77529628 2.39370514 -6.88598764 1.65118777 -4 1 C-3.29875 0.773125 -2.5975 0.54625 -1.875 0.3125 C-1.25625 0.209375 -0.6375 0.10625 0 0 Z " fill="#44A4DF" transform="translate(131,211)"/>
<path d="M0 0 C0.33 0 0.66 0 1 0 C1.38133299 1.9914056 1.71325582 3.99279077 2 6 C1.67 6.33 1.34 6.66 1 7 C0.76518307 9.18292774 0.58636677 11.37203174 0.4375 13.5625 C0.35371094 14.76003906 0.26992188 15.95757812 0.18359375 17.19140625 C0.12300781 18.11824219 0.06242187 19.04507813 0 20 C4.20128793 17.23240532 4.20128793 17.23240532 8.25 14.25 C10 13 10 13 12 13 C12.12375 12.360625 12.2475 11.72125 12.375 11.0625 C12.58125 10.381875 12.7875 9.70125 13 9 C13.66 8.67 14.32 8.34 15 8 C15.99 8.33 16.98 8.66 18 9 C18 8.34 18 7.68 18 7 C19.98 6.34 21.96 5.68 24 5 C22.9375 7.8125 22.9375 7.8125 21 11 C19.33797294 11.71695285 17.67057808 12.42641663 15.96875 13.04296875 C10.07612801 15.90743777 5.40547695 21.8108917 2.7421875 27.703125 C1.24083162 32.34942637 0.61201148 37.1683304 0 42 C-0.33 42 -0.66 42 -1 42 C-1.02477057 36.82218777 -1.04289347 31.64441025 -1.05493164 26.46655273 C-1.0599517 24.70612995 -1.0667691 22.94571132 -1.07543945 21.18530273 C-1.08760703 18.65086846 -1.09325166 16.11648946 -1.09765625 13.58203125 C-1.10281754 12.79850784 -1.10797882 12.01498444 -1.11329651 11.2077179 C-1.11369066 7.34408861 -0.9444276 3.754835 0 0 Z " fill="#B0D5EF" transform="translate(54,78)"/>
<path d="M0 0 C0.66 0.33 1.32 0.66 2 1 C0.43550739 5.52319291 -3.12605438 7.68873491 -6.8125 10.4375 C-12.049417 14.3756196 -12.049417 14.3756196 -16.82421875 18.84765625 C-19 21 -19 21 -21 21 C-21 25.95 -21 30.9 -21 36 C-21.33 36 -21.66 36 -22 36 C-22 26.76 -22 17.52 -22 8 C-21.01 9.32 -20.02 10.64 -19 12 C-18.01 12 -17.02 12 -16 12 C-15.34 10.68 -14.68 9.36 -14 8 C-12.6696875 8.1546875 -12.6696875 8.1546875 -11.3125 8.3125 C-6.93733393 7.89974848 -5.81017043 6.26587374 -3 3 C-2 2 -1 1 0 0 Z " fill="#6EC2EF" transform="translate(52,64)"/>
<path d="M0 0 C0.99 0 1.98 0 3 0 C3 6.6 3 13.2 3 20 C2.67 20 2.34 20 2 20 C1.67 16.04 1.34 12.08 1 8 C0.01 8 -0.98 8 -2 8 C-4.10770759 10.88834003 -5 12.38462395 -5 16 C-7.84498177 17.97568178 -10.88256767 19.49901406 -14 21 C-14.3125 18.3125 -14.3125 18.3125 -14 15 C-11.625 12.125 -11.625 12.125 -9 10 C-8.34 10 -7.68 10 -7 10 C-6.938125 9.443125 -6.87625 8.88625 -6.8125 8.3125 C-5.66383862 5.043233 -3.51178856 3.32340442 -1 1 C-0.67 0.67 -0.34 0.34 0 0 Z " fill="#72B4E8" transform="translate(72,96)"/>
<path d="M0 0 C0.66 0.33 1.32 0.66 2 1 C2 4.15100926 1.54973196 6.31118371 -0.44262695 8.80761719 C-2.18976873 11.26714582 -2.84392427 13.29233275 -3.60546875 16.203125 C-3.86650391 17.1828125 -4.12753906 18.1625 -4.39648438 19.171875 C-4.65751953 20.18765625 -4.91855469 21.2034375 -5.1875 22.25 C-5.46013672 23.28125 -5.73277344 24.3125 -6.01367188 25.375 C-6.68386125 27.91466501 -7.34563999 30.45621911 -8 33 C-8.33 33 -8.66 33 -9 33 C-9.06916667 29.66462951 -9.04997268 26.33567645 -9 23 C-8.98453125 21.83339844 -8.9690625 20.66679687 -8.953125 19.46484375 C-8.66693377 12.03182159 -8.21178712 7.45996746 -3 2 C-2.01 1.34 -1.02 0.68 0 0 Z " fill="#5ABAF0" transform="translate(67,139)"/>
<path d="M0 0 C1.53445094 3.06890187 0.54984289 5.70094266 0 9 C-0.66 8.01 -1.32 7.02 -2 6 C-7.65971237 8.4395312 -11.06099851 10.67328294 -14.7734375 15.609375 C-15.17820312 16.06828125 -15.58296875 16.5271875 -16 17 C-16.66 17 -17.32 17 -18 17 C-18.10957031 17.67546875 -18.21914063 18.3509375 -18.33203125 19.046875 C-18.49058594 19.93890625 -18.64914063 20.8309375 -18.8125 21.75 C-18.96332031 22.63171875 -19.11414062 23.5134375 -19.26953125 24.421875 C-20.05414248 27.1910911 -21.14595359 28.8259401 -23 31 C-22.5233014 19.36855415 -18.99300411 13.23452623 -10.6171875 5.14453125 C-7.17041531 2.32023583 -4.2864225 1.11129472 0 0 Z " fill="#9CCCEE" transform="translate(77,87)"/>
<path d="M0 0 C0 0.99 0 1.98 0 3 C-0.99 3.495 -0.99 3.495 -2 4 C-1.34 2.68 -0.68 1.36 0 0 Z M14 -1 C14.66 -0.67 15.32 -0.34 16 0 C8.55373498 3.98922698 0.86274406 7.12355375 -7.03466797 10.0769043 C-9.02699334 10.82260322 -11.01557162 11.57771665 -13.00390625 12.33398438 C-22.71735287 16 -22.71735287 16 -25 16 C-25 15.34 -25 14.68 -25 14 C-24.01 13.67 -23.02 13.34 -22 13 C-21.34 12.01 -20.68 11.02 -20 10 C-18.68 10 -17.36 10 -16 10 C-15.34 9.01 -14.68 8.02 -14 7 C-12 7 -10 7 -8 7 C-7.505 6.505 -7.01 6.01 -6.5 5.5 C-6.005 5.005 -5.51 4.51 -5 4 C-4.11828125 4.02191406 -3.2365625 4.04382812 -2.328125 4.06640625 C1.56747438 3.98867715 4.17369354 2.94960193 7.75 1.4375 C9.81079592 0.56942501 11.8908344 -0.2571309 14 -1 Z " fill="#60B5E8" transform="translate(98,47)"/>
<path d="M0 0 C0.66 0 1.32 0 2 0 C2 3.63 2 7.26 2 11 C0.948125 11.33 -0.10375 11.66 -1.1875 12 C-5.31028773 13.72059891 -6.77378491 16.27826363 -8.76171875 20.16015625 C-10.25227931 22.37483772 -11.59257936 22.93161806 -14 24 C-14.66 24.66 -15.32 25.32 -16 26 C-16.33 23.03 -16.66 20.06 -17 17 C-15.68 16.67 -14.36 16.34 -13 16 C-11.14038152 14.52780203 -9.4863999 12.92436354 -7.78125 11.27734375 C-6 10 -6 10 -2 10 C-0.39644899 6.49223216 0.22036864 3.85645121 0 0 Z " fill="#368DE1" transform="translate(69,128)"/>
<path d="M0 0 C1.9613079 3.25935094 2.17702566 5.41966966 1.86328125 9.18359375 C1.78190918 10.18841797 1.70053711 11.19324219 1.61669922 12.22851562 C1.51631348 13.28748047 1.41592773 14.34644531 1.3125 15.4375 C1.21727051 16.51322266 1.12204102 17.58894531 1.02392578 18.69726562 C0.29512715 26.32835146 -0.84043352 33.62867974 -3 41 C-3.33 41 -3.66 41 -4 41 C-4.12068471 34.60371021 -3.65486092 28.36150605 -3 22 C-3.33 22 -3.66 22 -4 22 C-4.2248832 16.5957757 -3.4886411 12.18724757 -2 7.0625 C-1.80921875 6.37865234 -1.6184375 5.69480469 -1.421875 4.99023438 C-0.95595063 3.32455474 -0.47911589 1.66193325 0 0 Z " fill="#4DAEEC" transform="translate(58,150)"/>
<path d="M0 0 C0.33 1.32 0.66 2.64 1 4 C-0.8125 5.0625 -0.8125 5.0625 -3 6 C-3.99 5.67 -4.98 5.34 -6 5 C-7.69769071 6.25496323 -7.69769071 6.25496323 -9.3125 8 C-11.15625 9.69921875 -11.15625 9.69921875 -13 11 C-16.3125 10.8125 -16.3125 10.8125 -19 10 C-19.99 10.495 -19.99 10.495 -21 11 C-20.71606445 9.12011719 -20.71606445 9.12011719 -20 7 C-17.38195636 5.54454523 -14.94186008 4.37294996 -12.1875 3.25 C-11.46240234 2.93417969 -10.73730469 2.61835937 -9.99023438 2.29296875 C-6.28455363 0.72661513 -4.14056968 0 0 0 Z " fill="#98CCDD" transform="translate(105,30)"/>
<path d="M0 0 C-5.31776517 2.74229851 -10.62034481 5.13252493 -16.21875 7.234375 C-16.96209595 7.51726379 -17.70544189 7.80015259 -18.47131348 8.09161377 C-20.81274521 8.98165872 -23.15630847 9.86592518 -25.5 10.75 C-27.10170795 11.35768968 -28.70327182 11.96575926 -30.3046875 12.57421875 C-34.20147565 14.05386964 -38.10018453 15.52834752 -42 17 C-42 16.01 -42 15.02 -42 14 C-41.04738281 13.67386719 -40.09476563 13.34773437 -39.11328125 13.01171875 C-37.84625231 12.57060497 -36.57933087 12.12918229 -35.3125 11.6875 C-34.07113281 11.25824219 -32.82976562 10.82898438 -31.55078125 10.38671875 C-28.42754884 9.16697452 -25.8330302 7.76243769 -23 6 C-21.33678518 5.64984951 -19.66965451 5.31802943 -18 5 C-16.80375 4.484375 -15.6075 3.96875 -14.375 3.4375 C-11 2 -11 2 -8 2 C-7.67 1.34 -7.34 0.68 -7 0 C-4.0262656 -1.09036928 -3.11592499 -1.03864166 0 0 Z " fill="#44A5E0" transform="translate(177,195)"/>
<path d="M0 0 C0.66 0 1.32 0 2 0 C3.50021506 9.05374544 2.65610396 17.95904819 2.0625 27.0625 C1.96088419 28.70763894 1.85996665 30.35282116 1.75976562 31.99804688 C1.51456548 35.99924284 1.25989807 39.99973296 1 44 C0.67 44 0.34 44 0 44 C0 29.48 0 14.96 0 0 Z " fill="#0D0F17" transform="translate(264,169)"/>
<path d="M0 0 C0.33 1.32 0.66 2.64 1 4 C1.66 4 2.32 4 3 4 C3.05827558 7.5624308 3.09368885 11.12473819 3.125 14.6875 C3.14175781 15.69490234 3.15851563 16.70230469 3.17578125 17.74023438 C3.18222656 18.71669922 3.18867188 19.69316406 3.1953125 20.69921875 C3.20578613 21.59471436 3.21625977 22.49020996 3.22705078 23.4128418 C2.97703456 26.26168257 2.18016512 28.40894543 1 31 C0.67 31 0.34 31 0 31 C0 20.77 0 10.54 0 0 Z " fill="#1F2229" transform="translate(430,109)"/>
<path d="M0 0 C-0.16015625 2.35546875 -0.16015625 2.35546875 -1 5 C-3.43359375 6.36328125 -3.43359375 6.36328125 -6.4375 7.3125 C-7.42621094 7.63863281 -8.41492188 7.96476562 -9.43359375 8.30078125 C-12 9 -12 9 -14 9 C-14.33 7.35 -14.66 5.7 -15 4 C-13.06767179 3.13419713 -11.12892806 2.28270059 -9.1875 1.4375 C-8.10855469 0.96183594 -7.02960938 0.48617187 -5.91796875 -0.00390625 C-3 -1 -3 -1 0 0 Z " fill="#89C0E7" transform="translate(166,86)"/>
<path d="M0 0 C0.66 0.33 1.32 0.66 2 1 C1.57847656 1.66902344 1.15695313 2.33804688 0.72265625 3.02734375 C-4.41476481 12.03294067 -4.97583142 19.80085874 -5 30 C-5.33 30 -5.66 30 -6 30 C-6.85897137 25.4746874 -7.22358537 21.10484209 -7.3125 16.5 C-7.34988281 15.2315625 -7.38726563 13.963125 -7.42578125 12.65625 C-6.79349029 7.22666891 -4.00117516 3.60105765 0 0 Z " fill="#5FBEE7" transform="translate(35,59)"/>
<path d="M0 0 C1.77237791 2.65856686 2.56077345 3.9485313 3 7 C2.546875 8.9375 2.546875 8.9375 1.75 11 C0.00316148 15.78585897 -1.14359948 20.62559769 -2.25390625 25.59375 C-2.62322266 26.78484375 -2.62322266 26.78484375 -3 28 C-3.66 28.33 -4.32 28.66 -5 29 C-4.61411174 18.98619978 -2.46135018 9.66223048 0 0 Z " fill="#73C5F0" transform="translate(55,186)"/>
<path d="M0 0 C1.19288556 3.57865669 0.75418031 5.40291754 0.07421875 9.09375 C-0.14556641 10.28871094 -0.36535156 11.48367187 -0.59179688 12.71484375 C-0.82962891 13.96394531 -1.06746094 15.21304688 -1.3125 16.5 C-1.53873047 17.74910156 -1.76496094 18.99820313 -1.99804688 20.28515625 C-3.74460419 29.61690629 -3.74460419 29.61690629 -6 33 C-6.36298019 25.45600991 -5.34392895 18.75460899 -3.5625 11.4375 C-3.33240234 10.44169922 -3.10230469 9.44589844 -2.86523438 8.41992188 C-1.15419224 1.15419224 -1.15419224 1.15419224 0 0 Z " fill="#1063D2" transform="translate(47,195)"/>
<path d="M0 0 C1.17829199 3.53487596 0.75665474 5.14485405 0.00390625 8.76171875 C-0.22490234 9.87998047 -0.45371094 10.99824219 -0.68945312 12.15039062 C-0.93630859 13.31763672 -1.18316406 14.48488281 -1.4375 15.6875 C-1.68048828 16.86634766 -1.92347656 18.04519531 -2.17382812 19.25976562 C-2.77569172 22.17467364 -3.38468019 25.08790804 -4 28 C-4.33 28 -4.66 28 -5 28 C-5.02698189 26.37509046 -5.04638757 24.75005367 -5.0625 23.125 C-5.07410156 22.22007812 -5.08570313 21.31515625 -5.09765625 20.3828125 C-5 18 -5 18 -4 16 C-4.66 16 -5.32 16 -6 16 C-5.67 13.36 -5.34 10.72 -5 8 C-4.34 8.33 -3.68 8.66 -3 9 C-2.01 6.03 -1.02 3.06 0 0 Z " fill="#4FB1EC" transform="translate(53,191)"/>
<path d="M0 0 C0.66 0.33 1.32 0.66 2 1 C2 4.17121869 1.5147913 6.32853309 -0.4375 8.875 C-2.3252014 11.4422739 -3.10220871 13.96132179 -4 17 C-5.21393968 13.35818097 -6.27049216 9.85451326 -6 6 C-3.625 3.0625 -3.625 3.0625 -1 1 C-0.67 0.67 -0.34 0.34 0 0 Z " fill="#67C2F2" transform="translate(67,139)"/>
<path d="M0 0 C0 0.66 0 1.32 0 2 C-1.5778125 2.8971875 -1.5778125 2.8971875 -3.1875 3.8125 C-8.73212979 7.50891986 -10.07024434 13.92616075 -12 20 C-12.33 20 -12.66 20 -13 20 C-13.33643576 14.5048826 -12.61021543 10.86040115 -10 6 C-4.65217391 0 -4.65217391 0 0 0 Z " fill="#9CDBF8" transform="translate(75,143)"/>
<path d="M0 0 C0.66 0 1.32 0 2 0 C2.02718316 2.85423192 2.04692705 5.70820015 2.0625 8.5625 C2.07087891 9.36236328 2.07925781 10.16222656 2.08789062 10.98632812 C2.10742247 15.77163104 1.80437018 20.28145051 1 25 C0.67 25 0.34 25 0 25 C-0.36181089 22.70952777 -0.71423224 20.41757055 -1.0625 18.125 C-1.25972656 16.84882813 -1.45695312 15.57265625 -1.66015625 14.2578125 C-2 11 -2 11 -1 9 C-0.77532169 7.46331135 -0.59203195 5.92031946 -0.4375 4.375 C-0.35371094 3.55773437 -0.26992187 2.74046875 -0.18359375 1.8984375 C-0.12300781 1.27195312 -0.06242187 0.64546875 0 0 Z " fill="#4396E2" transform="translate(71,113)"/>
<path d="M0 0 C2.3125 -0.25 2.3125 -0.25 5 0 C7.02100053 2.09762614 7.9188455 3.47118682 8.36328125 6.3671875 C8.26368563 11.28567897 7.94034528 15.39167996 6 20 C5.67 20 5.34 20 5 20 C5.01160156 19.02417969 5.02320313 18.04835938 5.03515625 17.04296875 C5.04417969 15.77066406 5.05320313 14.49835938 5.0625 13.1875 C5.07410156 11.92292969 5.08570313 10.65835938 5.09765625 9.35546875 C5.16159116 6.00394763 5.16159116 6.00394763 4 3 C1.98491642 2.26676204 1.98491642 2.26676204 0 2 C0 1.34 0 0.68 0 0 Z " fill="#96D0DE" transform="translate(192,89)"/>
<path d="M0 0 C-0.99 3.63 -1.98 7.26 -3 11 C-3.33 9.68 -3.66 8.36 -4 7 C-6.64 7 -9.28 7 -12 7 C-8.83571462 2.17030126 -5.84615449 0 0 0 Z " fill="#4CAAE7" transform="translate(57,72)"/>
<path d="M0 0 C0.66 0.33 1.32 0.66 2 1 C1.37727768 8.4071181 0.29512034 15.68194135 -1 23 C-1.66 23 -2.32 23 -3 23 C-2.48351265 15.21191437 -1.55123466 7.65074958 0 0 Z " fill="#79C1D7" transform="translate(195,114)"/>
<path d="M0 0 C0.99 1.32 1.98 2.64 3 4 C3.99 4.66 4.98 5.32 6 6 C4.02 6.99 4.02 6.99 2 8 C1.67 14.6 1.34 21.2 1 28 C0.67 28 0.34 28 0 28 C0 18.76 0 9.52 0 0 Z " fill="#7DCDF2" transform="translate(30,72)"/>
<path d="M0 0 C3.60272477 -0.40940054 5.37219754 -0.47509376 8.3125 1.75 C10.84748111 6.63218585 10.82673054 11.56800256 11 17 C8.64873925 13.47310887 7.95857513 10.26154723 6.9765625 6.1796875 C6.22547411 3.83846719 6.22547411 3.83846719 4.0859375 3.1953125 C1.85135437 2.9533874 1.85135437 2.9533874 -1 3 C-0.67 2.01 -0.34 1.02 0 0 Z " fill="#ABDAE8" transform="translate(107,27)"/>
<path d="M0 0 C0 0.66 0 1.32 0 2 C-6.28543527 5.43796251 -11.93463111 7.74646681 -19 9 C-19 8.34 -19 7.68 -19 7 C-17.66195312 6.49339844 -17.66195312 6.49339844 -16.296875 5.9765625 C-15.12640625 5.53054687 -13.9559375 5.08453125 -12.75 4.625 C-11.00976562 3.96371094 -11.00976562 3.96371094 -9.234375 3.2890625 C-6.11894681 2.10343958 -6.11894681 2.10343958 -3.703125 0.8359375 C-2 0 -2 0 0 0 Z " fill="#94D7F7" transform="translate(135,120)"/>
<path d="M0 0 C-2.50121027 1.66747352 -4.70253857 2.81930839 -7.4375 4 C-9.72402387 4.99044012 -11.92815824 5.9593298 -14.09765625 7.1875 C-16 8 -16 8 -19 7 C-19 6.34 -19 5.68 -19 5 C-16.39985473 3.96772138 -13.79573631 2.94894848 -11.1875 1.9375 C-10.44951172 1.64294922 -9.71152344 1.34839844 -8.95117188 1.04492188 C-3.33984375 -1.11328125 -3.33984375 -1.11328125 0 0 Z " fill="#93D7F7" transform="translate(157,113)"/>
<path d="M0 0 C0.33 0 0.66 0 1 0 C1.95261487 4.76307437 2.08333357 9.1666528 2 14 C2.66 14.33 3.32 14.66 4 15 C2.56445975 15.50559908 1.1264798 16.0042749 -0.3125 16.5 C-1.11300781 16.7784375 -1.91351563 17.056875 -2.73828125 17.34375 C-5 18 -5 18 -8 18 C-7.505 16.515 -7.505 16.515 -7 15 C-6.21625 14.87625 -5.4325 14.7525 -4.625 14.625 C-1.85942178 14.20882007 -1.85942178 14.20882007 0 12 C0.6425235 9.93125966 0.6425235 9.93125966 1 8 C0.34 8 -0.32 8 -1 8 C-0.67 5.36 -0.34 2.72 0 0 Z " fill="#B7C6D1" transform="translate(154,40)"/>
<path d="M0 0 C0.33 0.99 0.66 1.98 1 3 C-1.475 4.485 -1.475 4.485 -4 6 C-3.6875 4.125 -3.6875 4.125 -3 2 C-2.01 1.34 -1.02 0.68 0 0 Z M-6 6 C-5.34 6.33 -4.68 6.66 -4 7 C-4.97498145 8.5027237 -5.95509389 10.00211963 -6.9375 11.5 C-7.48277344 12.3353125 -8.02804688 13.170625 -8.58984375 14.03125 C-9.05519531 14.6809375 -9.52054688 15.330625 -10 16 C-10.33 16 -10.66 16 -11 16 C-11.3125 13.8125 -11.3125 13.8125 -11 11 C-8.5 8.1875 -8.5 8.1875 -6 6 Z " fill="#7CBAEB" transform="translate(69,100)"/>
<path d="M0 0 C0.66 0.33 1.32 0.66 2 1 C2.39460023 3.32375692 2.72230092 5.6593935 3 8 C3.30903983 9.33917261 3.62942911 10.67653254 4 12 C2.02 12.99 2.02 12.99 0 14 C-0.19393875 11.85473901 -0.37998676 9.70876323 -0.5625 7.5625 C-0.71912109 5.77005859 -0.71912109 5.77005859 -0.87890625 3.94140625 C-0.91886719 2.97074219 -0.95882812 2.00007812 -1 1 C-0.67 0.67 -0.34 0.34 0 0 Z " fill="#1773DA" transform="translate(39,217)"/>
<path d="M0 0 C1.97118682 3.94237364 2.12512011 5.63572162 1.77734375 9.90234375 C1 12 1 12 -4 17 C-2.68 11.39 -1.36 5.78 0 0 Z " fill="#49AAEA" transform="translate(58,150)"/>
<path d="M0 0 C-0.33 1.65 -0.66 3.3 -1 5 C-2.32 5.33 -3.64 5.66 -5 6 C-5 5.34 -5 4.68 -5 4 C-6.65 3.67 -8.3 3.34 -10 3 C-6.84439813 -0.15560187 -4.30999015 -1.43666338 0 0 Z " fill="#99C7E9" transform="translate(166,86)"/>
<path d="M0 0 C0.66 0.33 1.32 0.66 2 1 C-0.50058918 3.91024202 -3.19655377 5.16791164 -6.6875 6.6875 C-7.68136719 7.12449219 -8.67523438 7.56148438 -9.69921875 8.01171875 C-10.45847656 8.33785156 -11.21773437 8.66398437 -12 9 C-12 8.01 -12 7.02 -12 6 C-10.04669132 4.96958487 -8.08718472 3.9509107 -6.125 2.9375 C-5.03445312 2.36902344 -3.94390625 1.80054687 -2.8203125 1.21484375 C-1.42425781 0.61349609 -1.42425781 0.61349609 0 0 Z " fill="#95D9F8" transform="translate(173,103)"/>
<path d="M0 0 C-0.56364753 3.38188516 -1.47734688 5.95469377 -3 9 C-3.37668344 10.65740715 -3.72057545 12.32345271 -4 14 C-4.33 14 -4.66 14 -5 14 C-5.08082094 12.04233719 -5.13910778 10.08373272 -5.1875 8.125 C-5.22230469 7.03445312 -5.25710937 5.94390625 -5.29296875 4.8203125 C-5.19628906 3.88960938 -5.09960938 2.95890625 -5 2 C-2 0 -2 0 0 0 Z " fill="#5EBDF0" transform="translate(36,83)"/>
<path d="M0 0 C1.53445094 3.06890187 0.54984289 5.70094266 0 9 C-0.66 8.01 -1.32 7.02 -2 6 C-3.32 6.33 -4.64 6.66 -6 7 C-5.8125 4.625 -5.8125 4.625 -5 2 C-2.4375 0.6875 -2.4375 0.6875 0 0 Z " fill="#96C5E9" transform="translate(77,87)"/>
<path d="M0 0 C0.66 0.33 1.32 0.66 2 1 C1.67 1.66 1.34 2.32 1 3 C0.34 3 -0.32 3 -1 3 C-1.33 3.66 -1.66 4.32 -2 5 C-2.99 5 -3.98 5 -5 5 C-5.66 5.66 -6.32 6.32 -7 7 C-8.32 6.34 -9.64 5.68 -11 5 C-9.21289414 4.13633178 -7.4201535 3.28431406 -5.625 2.4375 C-4.62726563 1.96183594 -3.62953125 1.48617187 -2.6015625 0.99609375 C-1.74304688 0.66738281 -0.88453125 0.33867188 0 0 Z " fill="#8FC4D3" transform="translate(78,40)"/>
<path d="M0 0 C1.44715727 3.87186448 0.5441918 6.8232328 -0.4375 10.75 C-0.86869141 12.50570312 -0.86869141 12.50570312 -1.30859375 14.296875 C-1.53675781 15.18890625 -1.76492187 16.0809375 -2 17 C-2.33 17 -2.66 17 -3 17 C-3.08978444 11.88228715 -3.00925009 7.04625044 -2 2 C-1.34 1.34 -0.68 0.68 0 0 Z " fill="#D2E3EF" transform="translate(79,87)"/>
<path d="M0 0 C-0.99 1.485 -0.99 1.485 -2 3 C-4.96528179 3.0562279 -7.68850026 2.95683804 -10.625 2.6875 C-11.42679687 2.62626953 -12.22859375 2.56503906 -13.0546875 2.50195312 C-15.03758124 2.34851492 -17.01898519 2.17604307 -19 2 C-19 1.67 -19 1.34 -19 1 C-16.77100213 0.83109082 -14.54179338 0.66496313 -12.3125 0.5 C-10.45044922 0.36078125 -10.45044922 0.36078125 -8.55078125 0.21875 C-5.68500671 0.04220063 -2.86900043 -0.04388528 0 0 Z " fill="#4F5155" transform="translate(299,182)"/>
<path d="M0 0 C0.33 0 0.66 0 1 0 C1.33 4.62 1.66 9.24 2 14 C1.34 14 0.68 14 0 14 C0.33 15.32 0.66 16.64 1 18 C0.34 18 -0.32 18 -1 18 C-0.505 9.09 -0.505 9.09 0 0 Z " fill="#C1DCEE" transform="translate(73,120)"/>
<path d="M0 0 C0.66 0.33 1.32 0.66 2 1 C0.02 5.455 0.02 5.455 -2 10 C-2.66 10 -3.32 10 -4 10 C-3.38461538 3.47692308 -3.38461538 3.47692308 -1.4375 1.0625 C-0.7259375 0.5365625 -0.7259375 0.5365625 0 0 Z " fill="#5FADEA" transform="translate(56,132)"/>
<path d="M0 0 C1.18771723 3.42943519 0.80226223 5.37784675 -0.4375 8.75 C-0.86869141 9.94882813 -0.86869141 9.94882813 -1.30859375 11.171875 C-1.65083984 12.07679688 -1.65083984 12.07679688 -2 13 C-2.33 13 -2.66 13 -3 13 C-2.88557539 11.39504433 -2.75805306 9.79101881 -2.625 8.1875 C-2.55539063 7.29417969 -2.48578125 6.40085937 -2.4140625 5.48046875 C-2 3 -2 3 0 0 Z " fill="#80BEEE" transform="translate(57,116)"/>
<path d="M0 0 C1.76065836 2.64098754 2.52722899 3.9742655 3 7 C2.67 7.99 2.34 8.98 2 10 C1.34 10 0.68 10 0 10 C-0.33 10.66 -0.66 11.32 -1 12 C-1.08159574 7.83861737 -0.98248524 4.0527516 0 0 Z " fill="#7ECAF1" transform="translate(55,186)"/>
<path d="M0 0 C1.26977059 3.80931176 0.52074507 5.81618993 -0.4375 9.6875 C-0.86869141 11.45673828 -0.86869141 11.45673828 -1.30859375 13.26171875 C-1.65083984 14.61716797 -1.65083984 14.61716797 -2 16 C-2.33 16 -2.66 16 -3 16 C-3.33266291 9.79029227 -2.45029331 5.71735105 0 0 Z " fill="#60BCF0" transform="translate(57,175)"/>
<path d="M0 0 C-1.0625 1.5625 -1.0625 1.5625 -3 3 C-6.6875 2.6875 -6.6875 2.6875 -10 2 C-6.16991045 -0.55339303 -4.41711378 -1.47237126 0 0 Z " fill="#96D8F8" transform="translate(92,138)"/>
<path d="M0 0 C0.66 0 1.32 0 2 0 C2 3.3 2 6.6 2 10 C0.68 9.67 -0.64 9.34 -2 9 C-1.67 8.443125 -1.34 7.88625 -1 7.3125 C0.1309601 4.69715478 0.15662974 2.8193354 0 0 Z " fill="#2B82DB" transform="translate(69,128)"/>
<path d="M0 0 C0.66 0 1.32 0 2 0 C2.84454356 3.37817425 3.10844919 5.67465243 2 9 C1.34 9 0.68 9 0 9 C0 6.03 0 3.06 0 0 Z " fill="#35373C" transform="translate(263,102)"/>
<path d="M0 0 C0.33 0 0.66 0 1 0 C1.38133299 1.9914056 1.71325582 3.99279077 2 6 C1.67 6.33 1.34 6.66 1 7 C0.76636119 8.84891946 0.58696365 10.70488031 0.4375 12.5625 C0.35371094 13.57441406 0.26992188 14.58632812 0.18359375 15.62890625 C0.12300781 16.41136719 0.06242187 17.19382812 0 18 C-0.33 18 -0.66 18 -1 18 C-1.02717692 15.93757383 -1.0464758 13.87504297 -1.0625 11.8125 C-1.07410156 10.66394531 -1.08570313 9.51539062 -1.09765625 8.33203125 C-1.01192832 5.40699414 -0.67849023 2.83683709 0 0 Z " fill="#93C5EA" transform="translate(54,78)"/>
<path d="M0 0 C0.33 1.32 0.66 2.64 1 4 C-0.98 4.99 -0.98 4.99 -3 6 C-3.99 5.34 -4.98 4.68 -6 4 C-4.63772207 1.27544414 -3.11734545 0 0 0 Z " fill="#AEE3F9" transform="translate(105,30)"/>
<path d="M0 0 C1.60031344 3.20062687 0.03173691 5.72271806 -1 9 C-1.66 8.67 -2.32 8.34 -3 8 C-2.25 2.25 -2.25 2.25 0 0 Z " fill="#26292F" transform="translate(642,114)"/>
<path d="M0 0 C0 0.66 0 1.32 0 2 C-5.47619048 7 -5.47619048 7 -8 7 C-6.47663111 3.31852519 -4.31953005 0 0 0 Z " fill="#76C0EB" transform="translate(66,59)"/>
<path d="M0 0 C1.32 0 2.64 0 4 0 C3.43628586 3.26954202 2.50037734 4.82575883 0 7 C-1.04449911 3.86650268 -0.93423645 3.01031744 0 0 Z " fill="#75CBF6" transform="translate(65,142)"/>
<path d="M0 0 C1.10844919 3.32534757 0.84454356 5.62182575 0 9 C-0.12375 8.071875 -0.12375 8.071875 -0.25 7.125 C-0.81258459 4.81562433 -0.81258459 4.81562433 -3.0625 3.75 C-3.701875 3.5025 -4.34125 3.255 -5 3 C-3.35 2.67 -1.7 2.34 0 2 C0 1.34 0 0.68 0 0 Z " fill="#399CE1" transform="translate(54,74)"/>
<path d="M0 0 C1.65 0 3.3 0 5 0 C3.35 1.65 1.7 3.3 0 5 C-0.66 4.67 -1.32 4.34 -2 4 C-1.34 2.68 -0.68 1.36 0 0 Z " fill="#7AC9F1" transform="translate(38,72)"/>
<path d="M0 0 C0.66 0 1.32 0 2 0 C1.60196439 2.88575819 1.20990931 3.82189513 -1.0625 5.75 C-1.701875 6.1625 -2.34125 6.575 -3 7 C-3.66 6.67 -4.32 6.34 -5 6 C-3.38405168 3.95880212 -1.7143618 1.95927063 0 0 Z " fill="#22242A" transform="translate(603,168)"/>
<path d="M0 0 C0.99 0.33 1.98 0.66 3 1 C1.68 2.32 0.36 3.64 -1 5 C-2.32 4.34 -3.64 3.68 -5 3 C-4.360625 2.690625 -3.72125 2.38125 -3.0625 2.0625 C-1.06389179 1.1654837 -1.06389179 1.1654837 0 0 Z " fill="#91D7F7" transform="translate(107,130)"/>
<path d="M0 0 C-4.75 4.875 -4.75 4.875 -7 6 C-7 4.35 -7 2.7 -7 1 C-3.375 -1.125 -3.375 -1.125 0 0 Z " fill="#1D2128" transform="translate(273,99)"/>
<path d="M0 0 C0 0.99 0 1.98 0 3 C-0.99 3.495 -0.99 3.495 -2 4 C-1.34 2.68 -0.68 1.36 0 0 Z M-5 4 C-3.02 4.495 -3.02 4.495 -1 5 C-1.33 5.99 -1.66 6.98 -2 8 C-3.32 7.34 -4.64 6.68 -6 6 C-5.67 5.34 -5.34 4.68 -5 4 Z " fill="#6DBCE9" transform="translate(98,47)"/>
<path d="M0 0 C-1.26418246 0.69965443 -2.53665402 1.38434763 -3.8125 2.0625 C-4.52019531 2.44535156 -5.22789062 2.82820313 -5.95703125 3.22265625 C-8 4 -8 4 -11 3 C-9.66666667 2.33333333 -8.33333333 1.66666667 -7 1 C-6.319375 0.608125 -5.63875 0.21625 -4.9375 -0.1875 C-3 -1 -3 -1 0 0 Z " fill="#E3E5E9" transform="translate(166,101)"/>
<path d="M0 0 C0.66 0.66 1.32 1.32 2 2 C-0.3125 3.5625 -0.3125 3.5625 -3 5 C-3.99 4.67 -4.98 4.34 -6 4 C-4.60804085 1.2160817 -2.84424221 1.02101003 0 0 Z " fill="#AEE4F8" transform="translate(97,33)"/>
</svg>
